<?xml version="1.0" encoding="UTF-8"?>
<svg width="305px" height="114px" viewBox="0 0 305 114" version="1.1" xmlns="http://www.w3.org/2000/svg" xmlns:xlink="http://www.w3.org/1999/xlink">
    <!-- Generator: Sketch 52.6 (67491) - http://www.bohemiancoding.com/sketch -->
    <title>swp-small</title>
    <desc>Created with Sketch.</desc>
    <g id="Page-1" stroke="none" stroke-width="1" fill="none" fill-rule="evenodd">
        <g id="swp-small" transform="translate(-41.000000, -28.000000)">
            <path d="M0,170 C0,113.3 0,56.7 0,0 C133.3,0 266.7,0 400,0 C400,56.7 400,113.3 400,170 C266.7,170 133.3,170 0,170 Z" id="Path" fill="#FEFEFE"></path>
            <path d="M280.7,112.7 C285.9,120.9 291,128.7 296.4,137.2 C291.3,137.2 286.9,137.2 282.5,137.2 C280.6,137.2 280.2,135.5 279.5,134.3 C274.9,126.1 270.3,117.8 265.2,108.8 C265.2,118.6 265.2,127.6 265.2,136.9 C261,137.6 257,137.2 253.1,137.2 C249.3,137.3 245.5,137.2 241.4,137.2 C239.8,133 238.2,128.8 236.5,124.4 C228.9,124.4 221.1,124.4 213.1,124.4 C210.8,128.2 210.1,132.9 207.8,137 C203.7,137 199.6,137 194.8,137 C203.1,115.6 211.2,94.6 219.5,73.3 C223.1,73.3 226.7,73.3 230.7,73.3 C237.6,91.4 244.6,109.6 251.6,127.7 C251.8,127.7 251.9,127.6 252.1,127.6 C252.1,109.7 252.1,91.7 252.1,74.1 C253.2,72.6 254.5,73.1 255.6,73.1 C261.9,73.1 268.3,73.1 274.6,73.2 C278.1,73.3 281.6,73.8 284.7,75.3 C292.4,79 296,85.5 295.7,93.8 C295.5,101.9 292,108.1 284.2,111.4 C283.2,111.8 282.3,112.1 280.7,112.7 Z" id="Path" fill="#0B53A1"></path>
            <path d="M178.8,112.8 C178.8,121.2 178.8,129 178.8,137 C174.5,137 170.5,137 166.3,137 C166.3,115.9 166.3,94.8 166.3,73.6 C167.2,72.6 168.7,73.1 169.9,73.1 C177.4,73.3 184.9,72.5 192.3,74 C196.1,74.8 199,76.6 201.3,79.6 C206.5,86.4 207.4,93.8 204,101.6 C201.4,107.6 196.5,110.7 190.3,112 C186.8,112.8 183.2,113.2 178.8,112.8 Z" id="Path" fill="#0B53A1"></path>
            <path d="M311.9,103.8 C315.6,96.2 320.5,89.2 324.7,81.9 C325.9,79.7 327.4,77.7 328.5,75.5 C329.4,73.6 330.6,72.8 332.8,72.9 C336.4,73.1 340.1,72.9 344.4,72.9 C337.3,83.9 330.6,94.3 323.8,104.9 C330.5,115.5 337.2,126 344.2,137.1 C339.7,137.1 335.7,137 331.8,137.1 C330.2,137.1 329.3,136.3 328.7,135.1 C324.3,127.3 319.1,120 315,112 C314.7,109 310.9,107.3 311.9,103.8 Z" id="Path" fill="#0B53A2"></path>
            <path d="M311.9,103.8 C311.8,105 312.5,105.8 313.2,106.8 C314.4,108.3 315.3,110 315,112 C313.9,110.4 312.7,108.9 311.1,106.7 C311.1,117 311.1,126.7 311.1,136.6 C306.7,137.7 302.6,136.8 298.3,137.2 C298.3,115.8 298.3,94.8 298.3,73.4 C302.1,72.4 306.2,73.3 310,72.9 C311.3,74.3 310.8,75.7 310.8,77 C310.8,84.8 310.8,92.6 310.9,100.4 C310.9,101.6 310.1,103.2 311.9,103.8 Z" id="Path" fill="#0C54A1"></path>
            <path d="M252.9,35.4 C255.3,42.7 257.7,50.3 260.4,58.6 C263.1,50.2 265.5,42.7 268.4,33.9 C271.3,42.6 273.9,50.2 276.7,58.4 C278.6,52.3 280.3,46.8 282,41.3 C282.5,39.7 282.9,38.1 283.4,36.5 C283.9,35.2 284.9,34.9 286.8,35.6 C283.5,45.7 280.3,55.8 276.7,67 C273.8,58.1 271.2,50.3 268.4,41.8 C265.7,50.2 263.2,58 260.4,66.9 C257,56.8 253.9,47.6 250.7,38.2 C248.6,38.2 246.5,38.2 243.9,38.2 C243.9,45.6 243.9,52.9 243.9,60.1 C243.9,61.4 244,62.8 243.8,64.1 C243.7,65.4 242.7,65.6 241,65.4 C240.6,56.6 241,47.7 240.8,38.1 C234.3,37.8 227.7,38 221.1,37.9 C221.1,41.1 221.1,43.9 221.1,47 C224.4,47 227.5,47 230.6,47 C232,47 232.8,47.6 232.2,49.7 C228.6,49.7 224.9,49.7 220.9,49.7 C220.9,54.5 220.9,58.8 220.9,63.1 C220.9,64.8 220.3,65.6 218.2,65.1 C218.2,55.2 218.2,45.3 218.2,35.2 C229.6,35.4 241,35.4 252.9,35.4 Z" id="Path" fill="#040404"></path>
            <path d="M134,62 C137.6,66.2 138.4,71.6 139.9,76.7 C140.9,80.2 141.5,84.1 141,87.9 C139.8,98.8 137,109 129.3,117.2 C127.7,118.9 127.3,121.9 124.2,122 C123.3,120.8 123.9,119.5 124,118.3 C125.1,115.4 124,112 125.6,109.2 C126,108.8 126.5,108.7 127,108.8 C127.8,109.5 128,110.5 128,111.5 C136.5,100.8 138.2,87 132.3,74 C126.3,60.9 115.4,54.3 101.5,52.5 C97.2,51.9 93,53.4 88.8,54.3 C86.5,54.8 83.9,57.2 81.6,54.3 C81.4,53 82.1,52.1 82.7,51.1 C82.9,50.7 83.2,50.3 83.4,50 C83.6,49.6 83.9,49.3 84.2,48.9 C84.3,48.7 84.5,48.6 84.6,48.4 C84.9,48.1 85.2,47.7 85.6,47.4 C85.8,47.3 86,47.1 86.1,47 C86.5,46.7 86.9,46.5 87.4,46.4 C87.9,46.3 88.3,46.2 88.8,46.3 C105.9,43.4 120.1,49.4 132.2,61.1 C132.8,61.5 133.4,61.8 134,62 Z" id="Path" fill="#DEDEDE"></path>
            <path d="M323.7,65.1 C320.7,62.9 319.1,59.5 316.8,56.7 C315.4,54.9 314,53.1 312.2,50.7 C311,55.9 312.2,60.6 311.3,65.2 C309.3,65.9 307.6,65.6 305.5,65.4 C304.2,62.3 303,59.1 301.6,55.7 C297.5,55.5 293.6,55.4 289.8,55.8 C287.6,58.9 287.7,62.9 284.8,65.4 C284.5,65.7 283.9,65.7 283,64.8 C286.8,54.9 291.2,44.9 295.9,33.9 C300,43.9 303.7,52.9 307.5,62 C307.8,62 308.1,61.9 308.4,61.9 C308.4,53.2 308.4,44.5 308.4,35.4 C312,35 315,34.8 318.1,35.7 C322,36.8 323.7,38.9 324,42.7 C324.3,46.7 322.7,49.3 318.9,50.9 C318.3,51.1 317.7,51.2 316.6,51.5 C319.5,55.3 322.2,58.9 324.8,62.5 C325.3,63.2 326.5,63.8 325.8,65 C325.1,65.6 324.4,65.4 323.7,65.1 Z" id="Path" fill="#070707"></path>
            <path d="M77,132.9 C74.6,131.7 72.2,130.3 69.7,129.4 C64.7,127.5 61.1,123.5 57,120.4 C55.5,119.3 54.7,117.7 54,116 C54,113.7 52.8,111.9 51.9,109.9 C45.6,95.7 46,81.4 52.3,67.3 C53.3,65.1 54.2,62.5 57.3,62.4 C57.9,62.5 58.3,62.9 58.6,63.3 C59.5,65 60,66.8 59.5,68.8 C52.9,83.3 52.6,97.7 60.8,111.8 C64.7,118.6 70.3,123.7 77.1,127.6 C79,128.7 81.6,129.4 81.2,132.5 C80,134.2 78.5,134.3 77,132.9 Z" id="Path" fill="#C6C6C6"></path>
            <path d="M57.9,63 C56.3,62.9 55.6,63.8 54.9,65.1 C51.2,72.1 49.1,79.5 48.9,87.6 C48.7,96 50.1,103.9 54,111.3 C54.8,112.9 56,114.5 53.9,116 C53.6,115.6 53.2,115.3 52.9,115 C52.6,114.7 52.2,114.4 51.9,114 C51.8,113.7 51.8,113.4 51.8,113.1 C51.5,112.7 51.2,112.4 50.8,112 C50.2,111.5 50.4,110.5 49.8,110 C49.5,109.7 49.2,109.3 48.9,109 C45.8,103.5 44.6,97.6 43.7,91.4 C42.4,82.2 44.2,73.6 47.9,65.4 C50.6,59.5 54.2,53.9 59.8,50 C60.4,50.6 60.6,51.4 60.5,52.3 C59,55.7 60.4,59.8 57.9,63 Z" id="Path" fill="#B9BABA"></path>
            <path d="M71,39.3 C77.1,35.4 83.9,33.4 91.1,32.9 C101.3,32.2 111.3,33.1 120.8,37 C121.8,37.4 123,37.6 123.9,38.8 C118.5,39.1 113.3,38.5 108.1,39.1 C103.8,42.2 98.5,42.3 93.7,44 C91,44.2 88.5,43.5 87.9,40.8 C87.1,37.7 85.1,38.3 83.1,38.5 C82.7,38.6 82.3,38.7 81.9,38.8 C81.1,39 80.4,39.1 79.6,39.4 C79.3,39.6 78.9,39.7 78.6,39.8 C78.1,40 77.6,40.3 77.1,40.5 C76.6,40.8 76.1,41 75.6,41.2 C75.3,41.4 74.9,41.5 74.6,41.6 C74.3,41.7 73.9,41.8 73.6,41.9 C73.1,42.1 72.7,42.3 72.2,42.6 C71.6,43 71,43.4 70.4,43.8 C70.1,44 69.8,44.3 69.4,44.5 C69.2,44.6 69.1,44.7 68.9,44.8 C68.5,45 68.1,45.1 67.7,45.2 C67.5,45.2 67.3,45.1 67.1,45.1 C66.4,44.6 65.7,44.1 66.1,43 L66.2,42.9 C66.4,42.5 66.7,42.3 67.1,42.1 C67.3,41.8 67.5,41.7 67.8,41.7 C68.4,41.6 68.8,41.2 69,40.7 C69.4,40.5 69.7,40.1 70.1,39.9 L70.2,39.9 C70.3,39.7 70.6,39.5 71,39.3 Z" id="Path" fill="#302D80"></path>
            <path d="M198.6,66.3 C189.4,66 182.7,59 183,49.9 C183.2,41.1 190.8,34 199.8,34.6 C209.7,35.2 215.8,42 215.4,51.1 C215.1,61.3 206.6,66.8 198.6,66.3 Z" id="Path" fill="#050505"></path>
            <path d="M93.1,43 C98,41.5 102.9,39.6 108.1,39.1 C108.5,40.3 109.6,40.5 110.7,41 C119.5,45 127,50.5 132.1,58.9 C132.4,59.2 132.7,59.6 133.1,59.9 C133.4,60.2 133.8,60.6 134.1,60.9 C134.1,61.2 134.1,61.6 134.1,61.9 C133.5,63.3 132.7,62.9 131.9,62.1 C130,60.3 128,58.6 125.9,57 C118,50.7 109.2,46.8 99.1,46.6 C96.5,46.5 93.5,46.1 91,47.5 C89.6,48.3 88.9,46.9 87.9,46.8 C87.9,43.3 91.3,44.2 93.1,43 Z" id="Path" fill="#CECECE"></path>
            <path d="M77,132.9 C78.4,132.8 80,133.5 81,132 C81.4,131.4 82,131.1 82.7,130.9 C83.6,130.6 84.5,130.4 85.4,130.1 C86.3,129.9 87.3,129.8 88.2,129.9 C91.6,130.3 94.6,131.5 97.4,133.4 C98.9,133.7 100.4,133.7 101.9,133.2 C103.1,132.9 104.4,132.7 105.6,132.3 C107,131.8 108.2,131.2 109.5,130.6 C110,130.4 110.6,130.2 111.2,130 C111.6,129.9 111.9,129.7 112.3,129.6 C112.7,129.4 113,129.3 113.4,129.1 C114.2,128.8 114.9,128.5 115.8,128.4 C116.7,128.6 117.5,128.8 117.1,130 C116.6,130.2 116.4,130.6 116,130.9 C115.7,131.2 115.4,131.5 115,131.7 C110,135.8 103.9,137.6 97.8,138.7 C84.8,141.1 72.2,139.2 60.1,133.8 C59.8,133.7 59.6,133.4 58.8,132.8 C65.2,133.7 71.1,134.6 77,132.9 Z" id="Path" fill="#312D81"></path>
            <path d="M327.3,35.1 C331.9,35.1 335.8,35.1 339.8,35.1 C341.4,35.1 342.4,35.5 342,37.6 C338.3,38.6 334.3,37.5 330.4,38.2 C330.4,41.2 330.4,44 330.4,47.1 C333.8,47.1 336.9,47.1 340,47.1 C341.7,47.1 342.5,47.8 341.9,49.7 C338.2,50.5 334.4,49.6 330.4,50.2 C330.4,54.1 330.4,58.1 330.4,62.3 C334,63.4 338.1,62.2 341.8,63 C342.5,64.7 342,65.5 340.5,65.5 C336.2,65.6 331.9,65.5 327.3,65.5 C327.3,55.3 327.3,45.5 327.3,35.1 Z" id="Path" fill="#0F0F0F"></path>
            <path d="M166.7,59.2 C167.8,60.5 168.5,61.7 169.5,62.5 C171.9,64.5 175.6,64.1 177.6,61.9 C179.7,59.5 179.6,55.5 177.3,53.3 C176.3,52.4 175.1,51.8 174,51.1 C172.5,50.1 170.9,49.2 169.3,48.3 C166.3,46.4 165.3,43.5 166.1,40.1 C166.8,37.1 168.8,35.3 172,34.9 C176,34.3 177.8,35 180.2,38.7 C179.7,39.1 179.2,39.5 178.7,40 C177.4,39.3 176.5,38 175,37.6 C173,37.1 171,37.8 169.8,39.5 C168.6,41.2 168.8,43.2 170.2,45 C171.3,46.3 172.7,47.1 174.2,48 C175.9,49 177.7,49.9 179.2,51.1 C182.2,53.6 182.6,57.1 181.7,60.6 C180.8,63.9 178.6,66 175,66.4 C171.1,66.8 167.7,66.1 165.5,62.5 C164.4,60.7 165,59.9 166.7,59.2 Z" id="Path" fill="#070707"></path>
            <path d="M117.1,130.1 C116.8,129 116,129 115.1,129.1 C115,128.9 114.9,128.7 114.8,128.5 C116.8,124.6 119.5,121.2 122.1,117.7 C123.5,117.3 124.4,117.8 125,119.1 C125.3,120.3 124.2,121 124.2,122.1 C122,124.9 120.3,128.2 117.1,130.1 Z" id="Path" fill="#32589C"></path>
            <path d="M66.1,43.1 C66.3,44 67,44.6 67.8,44.9 C68.2,48.4 65,49.7 63.5,52 C62.3,52.4 61,52.5 59.8,51.9 C59.8,51.2 59.9,50.6 59.9,49.9 C62.1,47.7 63.2,44.6 66.1,43.1 Z" id="Path" fill="#3B5699"></path>
            <path d="M50,110 C51.2,110.2 51,111.1 51,112 C49.9,111.8 50,110.8 50,110 Z" id="Path" fill="#C6C6C6"></path>
            <path d="M323.7,65.1 C324.4,65.1 325.1,65 325.9,65 C325.2,66.3 324.4,65.5 323.7,65.1 Z" id="Path" fill="#0F0F0F"></path>
            <path d="M53,115 C53.6,115.1 53.9,115.4 54,116 C53.4,115.9 53.1,115.6 53,115 Z" id="Path" fill="#C6C6C6"></path>
            <path d="M52.1,114 C52.7,114.1 53,114.4 53.1,115 C52.4,114.9 52.1,114.6 52.1,114 Z" id="Path" fill="#C6C6C6"></path>
            <path d="M116,131 C116.1,130.4 116.5,130.1 117.1,130.1 C117,130.7 116.6,130.9 116,131 Z" id="Path" fill="#32589C"></path>
            <path d="M115,131.8 C115.1,131.3 115.4,131 116,131 C115.9,131.5 115.6,131.9 115,131.8 Z" id="Path" fill="#32589C"></path>
            <path d="M51,112 C51.6,112.1 51.9,112.5 52,113.1 C51.4,112.9 51.1,112.6 51,112 Z" id="Path" fill="#C6C6C6"></path>
            <path d="M71,39.3 C70.9,39.8 70.6,40 70.1,40 C70.2,39.6 70.4,39.2 71,39.3 Z" id="Path" fill="#3B5699"></path>
            <path d="M70,40.1 C69.9,40.7 69.5,41 68.9,40.9 C69,40.3 69.4,40 70,40.1 Z" id="Path" fill="#3B5699"></path>
            <path d="M68.9,40.9 C68.8,41.7 68.4,42 67.7,41.9 C67.9,41.3 68.3,41 68.9,40.9 Z" id="Path" fill="#3B5699"></path>
            <path d="M67,42.3 C66.9,42.8 66.6,43 66.1,43.1 C66.2,42.5 66.4,42.2 67,42.3 Z" id="Path" fill="#3B5699"></path>
            <path d="M133,60 C132.4,59.9 132.1,59.6 132,59 C132.6,59.1 132.9,59.4 133,60 Z" id="Path" fill="#DEDEDE"></path>
            <path d="M134,61 C133.4,60.9 133.1,60.6 133,60 C133.6,60.1 133.9,60.4 134,61 Z" id="Path" fill="#DEDEDE"></path>
            <path d="M49.1,109 C49.7,109.1 50,109.5 50,110 C49.4,109.9 49.1,109.6 49.1,109 Z" id="Path" fill="#C6C6C6"></path>
            <path d="M265.2,104 C265.2,97.4 265.2,91 265.2,84.2 C269.1,83.8 272.9,83.5 276.8,84.9 C280.5,86.2 282.6,88.6 282.9,92.5 C283.2,96.7 281.7,100 277.9,102 C274,104.2 269.8,104.4 265.2,104 Z" id="Path" fill="#FCFDFC"></path>
            <path d="M224.5,92 C227.6,98.5 229.5,104.9 232,111.6 C227.2,112.3 222.7,112 217.7,111.8 C219.2,104.8 222.4,98.9 224.5,92 Z" id="Path" fill="#F6F9F9"></path>
            <path d="M179,101.6 C179,95.8 179,90.3 179,84.6 C181.4,84.7 183.7,84.7 186,85.1 C189.9,85.6 192.1,88 192.8,92 C193.4,95.4 191.4,99.1 188.2,100.6 C185.4,101.7 182.5,102.3 179,101.6 Z" id="Path" fill="#FAFCFB"></path>
            <path d="M127,109 C126.7,109 126.5,109 126.2,109 C124.2,107.6 124.1,105.2 123.3,103.1 C123.2,102.3 123.3,101.6 123.7,100.9 C128.8,94.7 128.9,84.4 124.3,75.9 C117.6,63.5 100.7,55.6 84.6,64.4 C82.1,65.8 80.1,68.5 76.7,68.1 C75.4,66.5 75.7,64.7 75.8,62.9 C75.9,62.4 76,61.9 76.1,61.4 C76.4,60.6 76.7,60 77.2,59.3 C77.5,58.9 78,58.6 78.5,58.4 C83.4,56 88.4,54.2 93.8,53.4 C108.5,51.4 120,56.9 128.4,68.4 C136.5,79.7 137.9,92.3 131.3,105.1 C130.5,106.8 129.9,109.2 127,109 Z" id="Path" fill="#EDEDED"></path>
            <path d="M127,109 C129.4,108.1 129.6,105.7 130.5,103.9 C134.9,95.1 135,86.2 131.6,76.8 C128.4,68.2 122.7,62.2 115,58.2 C108.7,54.9 101.7,52.5 94.3,54.9 C93.2,55.2 92,54.9 90.8,55.1 C88.3,55.5 85.9,55.4 83.7,57.5 C82.5,58.7 80.5,60.6 78.1,59.1 C77.4,58.4 77.7,57.6 78,56.8 C78.1,56.4 78.3,56.1 78.5,55.7 C78.8,55.2 79.1,54.6 79.4,54.1 C79.9,53.4 80.5,52.9 81.4,52.8 C81.6,52.9 81.8,53 82,53 C82.1,53.6 81.9,54.3 82.6,54.8 C91.1,52.2 99.6,49.2 108.7,52.3 C117.1,55.2 124.9,59.2 129.9,66.8 C141.4,84 138.2,104.1 127,114 C127,112.1 127,110.5 127,109 Z" id="Path" fill="#E4E4E4"></path>
            <path d="M93.1,43 C91.8,44.9 88.9,44.7 87.8,46.9 C87.5,46.9 87.2,47 87,47.2 C86.6,47.4 86.3,47.6 86.1,48 L86,48 C85.6,48.3 85.3,48.6 85,48.9 C84.6,49.2 84.2,49.4 83.8,49.4 C81.5,48.1 82.8,46.3 83.1,44.7 C83.4,42.9 85.2,41.2 83.5,39.2 C83,38.8 82.5,38.5 82.1,37.9 C84,35.7 86.4,37.5 88.2,37 C90.3,38.4 87.5,40.2 89.1,41.6 C90.3,42.8 91.6,43.1 93.1,43 Z" id="Path" fill="#3A4891"></path>
            <path d="M124.1,102.8 C125.5,104.6 125.8,106.8 126.2,109 C125.6,112.3 127,115.9 125,119 C124.1,118.7 123.4,117.7 122.2,118 C121.5,117.5 121.3,116.7 121.3,115.9 C121.8,113.5 121.5,111.1 121.8,108.8 C122.3,106.7 122.3,104.4 124.1,102.8 Z" id="Path" fill="#207DBD"></path>
            <path d="M84,51 C83.7,52 83,52.7 82,53 L81.8,52.9 C81.2,51.8 81.6,51.1 82.7,50.6 C83.2,50.5 83.6,50.7 84,51 Z" id="Path" fill="#E4E4E4"></path>
            <path d="M86.1,48 C86.2,47.5 86.4,47.1 87,47.2 C86.9,47.7 86.6,48 86.1,48 Z" id="Path" fill="#CECECE"></path>
            <path d="M85,49 C85.1,48.4 85.4,48.1 86,48.1 C85.9,48.6 85.6,48.9 85,49 Z" id="Path" fill="#CECECE"></path>
            <path d="M84.1,49.1 C84.4,49 84.7,49 85,49 C84.9,49.6 84.6,49.9 84.1,50.1 C84,49.9 83.8,49.8 83.7,49.6 C83.8,49.4 84,49.3 84.1,49.1 Z" id="Path" fill="#CECECE"></path>
            <path d="M84,51 L83.5,51 L83,51 C82.7,50.1 83,49.8 83.9,50 L84,50.1 C84,50.4 84,50.7 84,51 Z" id="Path" fill="#CECECE"></path>
            <path d="M312.3,48.8 C311.4,47.6 311.4,46.8 311.4,46 C311.4,43.5 311.4,41.1 311.4,38.2 C314.6,37.9 317.6,37.1 319.7,40 C321,41.8 321.3,44 320.1,46.1 C318.3,49.2 315.2,48.8 312.3,48.8 Z" id="Path" fill="#F1F1F1"></path>
            <path d="M295.6,40.5 C297.6,45 299.2,48.5 300.1,52.6 C297,53.2 294.1,52.9 290.9,52.8 C292,48.5 293.9,44.9 295.6,40.5 Z" id="Path" fill="#EFEFEF"></path>
            <path d="M83,131.8 C82.3,131.9 81.7,131.9 81,132 C80.6,130.2 78.9,130 77.7,129.3 C69.5,124.9 63.1,118.9 58.7,110.5 C56.1,105.5 54.7,100.3 53.9,94.8 C52.9,87.5 53.4,80.6 56.5,73.9 C57.3,72.2 56.2,69.7 59,69 C59.2,69.1 59.4,69.1 59.6,69.2 C60,69.4 60.2,69.7 60.5,70.1 C60.8,70.7 61,71.3 61.2,71.9 C61.4,72.6 61.5,73.2 61.5,73.9 C61.4,74.4 61.3,74.8 61.1,75.3 C53.8,94.5 62.3,116.2 81,126.1 C83.3,127.3 85.9,128.1 88.1,129.7 C88.5,130.2 88.4,130.6 87.9,130.9 C87,130.9 86.1,131 85.2,131 C84.5,131.6 83.6,131.4 83,131.8 Z" id="Path" fill="#D2D2D2"></path>
            <path d="M59.8,52 C60.8,51.7 61.8,51 62.8,52 C63.9,53.4 63,54.8 62.8,56.2 C62.1,58.1 62.4,60.1 62.1,62 C61.4,63.9 61,66.5 58.1,64 C58,63.7 57.9,63.3 57.9,63 C58.2,59.3 57.3,55.3 59.8,52 Z" id="Path" fill="#2C7ABA"></path>
            <path d="M58.1,64 C60.2,64.9 60.6,64.6 61.1,61.9 C63.4,62.1 62.9,64.2 63.7,65.5 C64.1,66.6 64.6,67.6 64.7,68.7 C64.7,69.2 64.7,69.6 64.6,70 C64.1,71.3 63.6,72.5 62.8,73.6 C62.5,73.9 62.1,74.2 61.7,74.2 C61.5,74.1 61.3,73.9 61.2,73.8 C61.2,73.5 61.2,73.2 61,72.9 C60.7,72.6 60.4,72.2 60.1,71.8 C60,71.2 59.9,70.5 59.8,69.9 C59.6,69.5 59.3,69.2 59,68.9 C59.5,67.2 57.8,65.8 58.1,64 Z" id="Path" fill="#2E95D1"></path>
            <path d="M64,69 C63.6,68 62.7,67.2 62.9,66 C62.9,64.3 63.7,62.9 64.3,61.5 C67.8,54.6 71.9,48.1 74.7,40.8 C75.2,40 76,39.9 76.8,39.8 C77.2,39.6 77.6,39.3 78,39.1 C78.3,39 78.6,38.9 78.9,38.9 C79.3,38.5 79.7,38.5 80.1,38.9 C78.7,45.2 75,50.6 72.7,56.6 C71.2,59.8 69.2,62.8 67.8,66.1 C67.3,67.8 66.4,69.5 64,69 Z" id="Path" fill="#ACBADE"></path>
            <path d="M62,55.9 C61.8,54.5 62.5,53.3 62.9,52 C64.1,49.3 66.4,47.4 67.9,45 L68,44.9 C68.4,44.7 68.7,44.4 69,44 C69.4,43.7 69.7,43.4 70.1,43.1 C70.7,42.7 71.4,42.3 72,41.9 C72.4,41.6 72.9,41.5 73.4,41.6 C73.9,41.7 74.2,42 74.3,42.5 C71.6,48.4 68.2,54 65.1,59.8 C64.3,60.6 63.4,61.4 61.9,60.9 C61.3,59.3 61.2,57.6 62,55.9 Z" id="Path" fill="#EEEFF7"></path>
            <path d="M72,56 C74.2,50.2 76.7,44.4 79.9,39.1 C80,38.5 80.6,38.4 81,38.1 C81.3,38.1 81.6,38.1 82,38 C82.7,38 83.3,38 84,38.1 C84.3,42.5 81.6,45.7 79.7,49.2 C77,51.3 77.6,55.6 74.3,57.3 C73.2,57.5 72.4,57 72,56 Z" id="Path" fill="#8C92C5"></path>
            <path d="M65,59 C66.8,55.1 67.9,50.8 71,47.5 C72.4,46 72.5,43.6 74,42.1 C73.6,41.9 73.5,41.7 73.7,41.5 C73.8,41.3 73.9,41.2 74.1,41.2 C74.3,41.1 74.6,41 74.9,41 C75.7,41.3 76.3,41.8 75.8,42.8 C74.8,45.5 73.1,48 71.7,50.5 C69.5,54.4 68.3,58.9 65.1,62.2 C64.1,61 64.3,60 65,59 Z" id="Path" fill="#CACFE8"></path>
            <path d="M81,38.1 C80.9,38.7 80.4,39 79.9,39.1 C79.6,39.1 79.3,39.1 78.9,39 C79.3,37.9 80.2,38 81,38.1 Z" id="Path" fill="#5A6AAA"></path>
            <path d="M78,39.2 C77.8,39.8 77.4,40 76.8,39.9 C77.1,39.4 77.4,39 78,39.2 Z" id="Path" fill="#8C92C5"></path>
            <path d="M72.9,41.9 L72.4,42 L72,41.9 C72.1,41.3 72.5,41.1 73.1,41.1 C73.3,41.3 73.4,41.6 73.3,41.7 C73.1,41.8 73,41.9 72.9,41.9 Z" id="Path" fill="#3B5699"></path>
            <path d="M72.9,41.9 C73,41.6 73,41.3 73.1,41 C73.4,41 73.7,41 74.1,41 C74.1,41.3 74.1,41.6 74.1,42 C73.6,42 73.3,41.9 72.9,41.9 Z" id="Path" fill="#ACBADE"></path>
            <path d="M70.1,43 C69.9,43.6 69.6,43.9 69,43.9 C69.1,43.3 69.5,43 70.1,43 Z" id="Path" fill="#3B5699"></path>
            <path d="M68.9,44 C68.8,44.6 68.5,44.9 67.9,44.9 C68.1,44.3 68.4,44 68.9,44 Z" id="Path" fill="#3B5699"></path>
            <path d="M212.1,50.5 C212.1,57.8 205.9,64 198.8,63.8 C191.8,63.5 186.1,57.5 186.1,50.4 C186.1,43.4 192,37.3 199,37.2 C206.3,37 212.2,43.1 212.1,50.5 Z" id="Path" fill="#FDFDFD"></path>
            <path d="M110.2,131.2 C109,132.3 107.6,132.9 106,133.1 C103.3,132.8 104.2,131 104.7,129.6 C105.4,127.8 106.1,126 107.1,124.2 C111.4,117.5 114.4,110.1 118.6,103.2 C119,102.9 119.4,102.7 119.9,102.7 C120.4,102.8 120.8,103 121.1,103.4 C121.4,103.7 121.7,104.1 121.9,104.5 C122.2,105.1 122.5,105.8 122.5,106.5 C122.4,107 122.3,107.4 122.1,107.8 C118.5,115.7 113.1,122.8 110.2,131.2 Z" id="Path" fill="#ACB4DA"></path>
            <path d="M110.2,131.2 C109.7,131 109.2,130.7 109.4,130.3 C110,128.6 110.6,127 111.4,125.4 C114.5,119.1 117.9,112.9 121.9,107.1 C122.9,107.5 122.4,108.6 123,109.2 C122.7,111.5 123.9,114.1 122.2,116.3 C119.7,116.3 119.6,118.5 118.9,119.9 C117.4,123.1 115.7,126 113.7,128.9 C113.5,129.3 113.3,129.7 113,130 C112.6,130.3 112.3,130.7 111.8,130.9 C111.3,131 110.7,131.1 110.2,131.2 Z" id="Path" fill="#D4DAEE"></path>
            <path d="M102.1,134.1 C100.7,135.9 98.7,134.6 97,135 C95.6,133.2 96.6,131.6 97.4,130.1 C98.5,128.1 99.6,126.1 99.7,123.8 C99.8,123.1 99.9,122.5 100.1,121.8 C100.3,121.2 100.7,120.6 101.1,120.1 C101.5,119.6 101.9,119.2 102.3,118.8 C102.7,118.4 103.1,118 103.5,117.5 C103.8,117 104.1,116.5 104.4,116 C104.6,115.6 104.9,115.3 105.3,115.1 C105.7,114.9 106.1,114.8 106.6,114.8 C106.8,114.9 107,115 107.2,115.2 C108.4,118 105.8,120.4 106.2,123.1 C105.5,127 103.4,130.4 102.1,134.1 Z" id="Path" fill="#5465A6"></path>
            <path d="M100.9,122.6 C101.7,125.9 100,128.5 98.3,131 C97.4,132.3 96.9,133.4 97,134.9 C94.4,132.5 91.2,131.4 87.8,130.8 C87.9,130.5 88,130.2 88.1,129.9 C88.7,128.7 90,128.3 91.1,127.7 C91.4,127.5 91.8,127.3 92.2,127.2 C92.5,127 92.9,126.9 93.2,126.7 C93.5,126.5 93.9,126.4 94.2,126.2 C94.7,126 95.2,125.7 95.6,125.5 C95.9,125.3 96.2,125.2 96.5,125.1 C96.8,124.9 97.1,124.8 97.4,124.6 C97.5,124.5 97.7,124.4 97.8,124.3 C98,124.1 98.3,123.8 98.6,123.6 C98.7,123.5 98.9,123.4 99,123.2 C99.3,123 99.6,122.8 99.9,122.6 C100.2,122.5 100.5,122.5 100.9,122.6 Z" id="Path" fill="#32418D"></path>
            <path d="M102.1,134.1 C100.8,133.6 101.1,132.9 101.6,131.8 C103.1,129 104.5,126.2 105,123 C106.4,120.4 107.1,117.5 108.5,114.9 C109.3,113.4 109.7,111.2 112.3,112.1 C112.9,116.8 109.3,120 108,124 C107.5,126.2 107,128.4 105.4,130.2 C104.6,131.1 104.5,132.4 106,133 C105.1,134.7 103.4,133.7 102.1,134.1 Z" id="Path" fill="#8086BE"></path>
            <path d="M83,131.8 C83.4,130.8 84.3,131 85.1,131 C84.6,131.9 83.9,132 83,131.8 Z" id="Path" fill="#C6C6C6"></path>
            <path d="M113,130 C113.1,129.7 113.1,129.4 113.2,129.1 C113.6,128.4 114.1,128.4 114.7,128.7 L115,129 C114.7,130.1 113.8,130 113,130 Z" id="Path" fill="#32589C"></path>
            <path d="M111.8,130.9 C112,130.3 112.4,130 113,130 C112.9,130.7 112.5,131 111.8,130.9 Z" id="Path" fill="#32589C"></path>
            <path d="M114.7,128.7 C114.2,128.8 113.7,129 113.2,129.1 C112.7,129 112.1,128.5 112.4,128.2 C115.6,125.4 116.4,121.2 118.5,117.8 C119.3,116.4 119.9,114.9 121.7,114.2 C121.8,114.9 122,115.5 122.1,116.1 C122.1,116.7 122.1,117.3 122.1,117.9 C120.9,122.4 117.9,125.6 114.7,128.7 Z" id="Path" fill="#EFF3F7"></path>
            <path d="M104.2,118 C103.8,118.3 103.4,118.7 103.1,119 C102.7,119.3 102.2,119.5 101.7,119.6 C88.3,120.2 78.2,114.5 71.6,102.9 C68.5,97.4 67.8,91.6 69.5,85.5 C69.8,85.1 70.2,84.8 70.7,84.6 C71.5,84.5 72.2,84.7 72.9,84.9 C79.9,89.4 87.5,92.6 95.4,95.2 C95.9,95.2 96.1,95.9 96.7,95.6 C96.4,95.5 96.2,95.4 95.9,95.2 C86,90 78.8,82.5 75.9,71.5 C75.8,70.2 75.8,68.9 76.9,67.9 C82.7,62.8 89.7,60.3 97.1,59 C100.9,58.3 104.5,59.7 108.1,60.9 C117.5,64.1 124.1,70.1 127.2,79.7 C129.6,87.1 129.8,94.5 125.5,101.5 C125.1,101.3 124.5,101.1 123.9,100.9 C122.6,100.8 121.8,99.9 121.2,98.9 C114.4,88 104,82.2 92.2,78.4 C91,78 89.8,77.4 89.1,77.2 C97.9,82.4 105.2,89.3 108,100.1 C108.2,102.5 109.3,104.8 108.8,107.3 C108.5,108.7 108.1,110 108,111.4 C107.9,111.9 107.8,112.3 107.6,112.7 C107.3,113.6 106.6,114.2 105.9,114.8 C105.6,115.1 105.3,115.4 105.2,115.8 C105,116.1 104.9,116.4 104.9,116.7 C104.7,117.3 104.4,117.6 104.2,118 Z" id="Path" fill="#FDFEFD"></path>
            <path d="M107.1,100 C103.5,89.2 95.7,82.1 86.3,76.3 C91.6,76.3 96.2,78.3 100.8,80.3 C110.8,84.6 118.7,91.4 124.1,101 C124.1,101.6 124.1,102.2 124.2,102.8 C124.5,105.1 123.5,107.1 123,109.2 C122.1,108.8 122.1,107.9 121.9,107.1 C121.9,106.8 121.9,106.4 121.9,106.1 C121.6,105.7 121.4,105.4 121,105 C121,104.7 121,104.4 120.9,104.1 C120.6,103.7 120.3,103.4 120,103.1 C118.7,102.1 117.3,101.9 115.8,102.5 C115,102.8 114.3,103 113.5,103.3 C108.5,105.1 108.4,105.1 107.1,100 Z" id="Path" fill="#199EDA"></path>
            <path d="M74,57 C74.6,55.4 76.3,54.5 76.1,52.4 C76,50.7 77.5,49.7 79,49 C81.3,49.3 80.1,50.8 80,51.8 C79.9,53.2 78.4,54.3 79,55.9 C79.3,57.1 78.2,57.9 78.2,58.9 C78.1,59.2 78,59.5 78,59.9 C77.7,60.2 77.3,60.4 76.8,60.4 C74.8,61.1 75.3,66 71.4,63.6 C70.7,60.8 71.9,58.7 74,57 Z" id="Path" fill="#5B87C0"></path>
            <path d="M72,64 C72.8,63.9 73.9,64.1 73.9,63 C74,61.3 75,60.3 76.2,59.5 C76.6,59.2 76.9,59.8 77.1,60.3 C77.5,60.5 77.5,60.8 77.3,61.1 C77.2,61.4 77,61.8 76.9,62.1 C76,64 76.9,66.1 76.3,68.1 C73.5,69.5 71.5,72.2 68,72.3 C66.8,68.3 68.7,65.8 72,64 Z" id="Path" fill="#3591CC"></path>
            <path d="M76,68 C76.5,66 75.1,63.8 76.9,62 C76.9,64 77,66 77,68 C77,69.3 77,70.7 77,72 C74.4,71.2 75.1,69.6 76,68 Z" id="Path" fill="#5B87C0"></path>
            <path d="M77.3,61 C77.2,60.7 77.1,60.5 77.1,60.2 C77.4,60.1 77.7,60 78,60 C78,60.5 77.8,60.8 77.3,61 Z" id="Path" fill="#E4E4E4"></path>
            <path d="M79,56 C78.4,55.9 77.7,56.1 77.1,55.2 C77.6,53.2 80.2,51.7 79,49 C80.2,45.2 82,41.6 84,38 C85.9,37.8 86.4,38.8 85.9,40.4 C85.1,42.7 84.3,45 83.4,47.2 C83,48.2 83.3,48.7 84.2,49.1 C84.1,49.4 84.1,49.7 84.1,50 C83.5,50.1 83.2,50.4 83.2,51 C82.3,51.2 82.1,52 82,52.8 C81,53.2 80.5,54.1 80,54.9 C79.6,55.4 79.3,55.7 79,56 Z" id="Path" fill="#5A6AAA"></path>
            <path d="M79,56 C79,55.5 79.3,55.1 79.8,55 C79.9,55.6 79.5,55.9 79,56 Z" id="Path" fill="#5B87C0"></path>
            <path d="M92.2,128.1 C91.1,129.3 89.6,129.8 88.1,130 C84.3,130 81.2,127.8 78.3,125.9 C73.8,123 69.5,119.6 66.1,115.3 C61.6,109.6 59.4,103.1 57.8,96.1 C56.2,89.2 57.7,82.9 59,76.4 C59.3,75.1 60,74.4 61.1,73.9 C61.4,74.3 61.8,74.5 62.2,74.6 C62.4,74.7 62.6,74.8 62.8,74.9 C63.2,75.2 63.5,75.5 63.8,75.9 C64.3,76.8 64.6,77.7 64.2,78.7 C59.1,91.9 62.7,103.3 71.1,113.7 C74.4,117.8 78.6,120.6 83.3,122.8 C86.4,124.3 89.9,125.3 92.2,128.1 Z" id="Path" fill="#DADADB"></path>
            <path d="M59,69 C59.6,69.1 59.9,69.4 59.8,70 C59.3,69.9 59,69.5 59,69 Z" id="Path" fill="#C6C6C6"></path>
            <path d="M60.1,71.9 C60.6,72.1 61,72.4 61,73 C60.3,72.9 60,72.5 60.1,71.9 Z" id="Path" fill="#C6C6C6"></path>
            <path d="M65,59 C65,60 65,61 65,62 C64.9,63.6 64.4,65.1 63,66 C61.2,65.2 62.8,62.7 61.1,61.8 C61.4,59.8 60.4,57.7 62,55.9 C62,57.5 62,59 62,60.6 C63.5,60.6 63.8,59.1 65,59 Z" id="Path" fill="#C9D7EE"></path>
            <path d="M64.1,78 C63.7,77.3 63.3,76.7 62.9,76 C62.6,75.6 62.4,75.3 62.1,75 C61.8,74.8 61.7,74.5 61.8,74.3 C61.9,74.1 62,73.9 62.1,73.9 C62.2,72.3 62.7,70.9 64.1,70 C65.7,70.1 66.7,71.6 68.2,72 C68.7,71.9 69.5,72 69.6,71.8 C70.7,68.7 73.2,67.9 76.2,68 C76.7,69.3 75.3,71 77.2,72 C80.7,82.5 87.9,89.7 97.2,95.1 C97.4,96 97.2,96.5 96.2,96.2 C88.5,94.7 81.5,91.8 75,87.4 C74.2,86.9 73.5,86 72.4,86 C71.9,85.8 71.5,85.5 71.2,85 C69.3,84.4 68.1,82.9 66.7,81.6 C66.4,81.3 66.1,81 65.8,80.7 C65.7,80.5 65.5,80.4 65.4,80.2 C64.6,79.6 64.1,78.9 64.1,78 Z" id="Path" fill="#189FDA"></path>
            <path d="M68,72 C67.6,72.9 67,73.3 66.1,72.6 C65.2,71.9 64.3,71.2 63.9,70 C63.9,69.7 63.9,69.3 63.9,69 C65.3,68.4 66.5,67.4 66.8,66 C67.7,62.2 70.1,59.3 71.9,56 C72.6,56.3 73.2,56.7 73.9,57 C74,59.5 71.3,61.3 71.9,64 C70.4,66.5 68.4,68.9 68,72 Z" id="Path" fill="#77A7D7"></path>
            <path d="M62,73.9 C62,74.2 62,74.6 62,74.9 C61.4,74.8 61,74.5 61,73.8 C61.4,73.9 61.7,73.9 62,73.9 Z" id="Path" fill="#D2D2D2"></path>
            <path d="M116,101 C118.5,100.1 119.2,100.5 120,103 C117.8,104.8 117.3,107.7 116.2,110.1 C114.4,114.1 111.4,117.4 110.2,121.6 C109.8,122.8 109.3,123.7 108.1,124.1 C108.7,121.2 109.3,118.2 111.2,115.8 C112.1,114.7 112.2,113.5 112.1,112.1 C110.6,109.7 113.1,108.1 113.1,106 C113.6,104 115.1,102.7 116,101 Z" id="Path" fill="#82AAD9"></path>
            <path d="M120,103 C120.6,103.1 120.9,103.4 120.9,104 C120.3,103.9 120,103.6 120,103 Z" id="Path" fill="#82AAD9"></path>
            <path d="M121,105 C121.6,105.1 121.9,105.5 121.9,106.1 C121.3,105.9 121,105.5 121,105 Z" id="Path" fill="#82AAD9"></path>
            <path d="M100.9,122.6 C100.6,122.8 100.3,122.9 100,123.1 C99.6,123.3 99.3,123.6 99.1,124 C98.7,124.3 98.2,124.4 97.7,124.5 C93.3,126 89.6,124 85.7,122.5 C69.9,116.2 60.8,99.9 63.8,83.3 C64,82 63.7,80.1 66,80 L66.1,80 C66.4,80.4 66.7,80.8 66.9,81.2 C68.8,82.9 69.6,84.5 69,87.6 C66.6,99.4 72.9,107.6 81.4,114.6 C86.9,119.1 93.6,119.4 100.2,120.2 C100.7,120.4 101,120.7 101.3,121.1 C101.1,121.7 101,122.2 100.9,122.6 Z" id="Path" fill="#EEEEEE"></path>
            <path d="M114,106 C114,107.3 114.2,108.6 113,109.5 C112.2,110.1 111.9,111 112,112 C109.4,113.5 109.2,116.5 108,118.8 C107.2,120.3 107,122.3 105,123 C104.8,120.9 105.2,118.9 106.4,117.2 C107,116.3 107.3,115.5 106,115 C106,114.1 106,113.3 106.9,112.8 C108.7,112 108.9,110 110,108.7 C111,107.4 111.7,105.4 114,106 Z" id="Path" fill="#5180BB"></path>
            <path d="M105.3,116 C105.2,115.4 105.6,115.2 106,115 C106,115.5 105.8,115.9 105.3,116 Z" id="Path" fill="#5180BB"></path>
            <path d="M102.2,120.2 C101.9,120.5 101.5,120.9 101.2,121.2 L101,121 C100.9,120.5 101.1,120.1 101.5,119.8 C101.7,119.9 101.9,120 102.2,120.2 Z" id="Path" fill="#EEEEEE"></path>
            <path d="M102,119 C102.3,119 102.7,119 103,119 C103,119.6 102.7,120 102.1,120.1 L102,120 C101.7,119.8 101.6,119.6 101.7,119.3 C101.8,119.1 101.9,119 102,119 Z" id="Path" fill="#EEEEEE"></path>
            <path d="M104.2,118 C104.1,117.4 104.5,117.1 105,116.9 C105,117.5 104.7,117.9 104.2,118 Z" id="Path" fill="#5180BB"></path>
            <path d="M65.9,80.1 C64.4,84 63.8,88.2 64.2,92.1 C64.9,98.3 66.9,104.2 70.7,109.3 C71,109.7 71,110.3 71.3,110.6 C76.1,115.4 81,120 87.7,121.9 C88.5,122.1 89.4,121.9 90,122.5 C91.7,124.3 93.8,124.3 95.9,123.4 C96.9,123 97.3,124 98.1,124 C98.2,124.3 98.2,124.6 97.9,124.9 C97.5,125.2 97.2,125.6 96.7,125.8 C96.4,125.9 96.1,125.9 95.9,125.9 C95.4,126.5 94.4,126.3 94,127 C93.7,127.3 93.3,127.5 93,127.8 C92.8,128 92.5,128.1 92.2,128.1 C83.8,124.8 75.4,121.3 69.5,114 C64.6,107.9 61.7,101.1 60.8,93.2 C60.4,89.8 60.9,86.5 61,83.2 C61.1,81 61.9,79.1 64,78 C65,78.4 65.7,79 65.9,80.1 Z" id="Path" fill="#E4E4E4"></path>
            <path d="M94,127.1 C94.2,125.9 95.1,126.1 95.9,126 C95.7,127 94.8,127 94,127.1 Z" id="Path" fill="#DADADB"></path>
            <path d="M98,125 C98,124.7 98.1,124.4 98.2,124.1 C98.5,124.1 98.8,124.1 99.1,124.1 C98.9,124.7 98.6,125 98,125 Z" id="Path" fill="#5465A6"></path>
            <path d="M96.8,125.9 C97,125.3 97.4,125 98,125 C97.9,125.7 97.5,126 96.8,125.9 Z" id="Path" fill="#5465A6"></path>
            <path d="M99.1,124 C99.1,123.4 99.4,123.1 100,123.1 C99.9,123.7 99.6,124 99.1,124 Z" id="Path" fill="#5465A6"></path>
            <path d="M93,127.8 C93.1,127.2 93.5,127 94,127 C93.9,127.6 93.6,127.9 93,127.8 Z" id="Path" fill="#DADADB"></path>
            <path d="M102,119 C102,119.3 102,119.6 102,120 C101.4,120.1 101.1,120.4 101,121 C91.9,121.6 83.9,119.4 77.1,112.8 C72.5,108.3 69.2,103.3 67.6,97.1 C66.5,93 65.9,88.7 69,85 C67.9,83.6 67,82.4 66,81.1 C66.3,80.7 66.6,80.7 66.9,81.1 C68.6,82.1 70,83.4 71.1,85 C70.8,85.3 70.2,85.6 70.1,86 C69.2,93.8 70.7,100.9 75.7,107.2 C81.1,114 88.5,117.1 96.6,118.8 C98.2,119.1 100.2,117.3 102,119 Z" id="Path" fill="#F0F1F1"></path>
            <path d="M114,106 C112,106.7 111.1,108.5 110.4,110.2 C109.8,111.6 109,112.7 107.8,113.5 C107.4,113.7 107.1,113.1 106.9,112.7 C106.9,112.4 106.9,112.2 107.1,111.9 C108.2,110.7 107.1,109 108,107.8 C107.7,105.2 107.4,102.5 107.2,99.9 C108.8,100.6 107.6,103.3 110.2,103.7 C111.3,101.4 114.2,102.3 116.1,100.9 C116.7,103.2 114.7,104.4 114,106 Z" id="Path" fill="#2B8CCA"></path>
            <path d="M95.9,96.1 C96.4,95.9 96.9,95.7 96.9,95 C97.9,95.5 98.8,95.9 100.2,96.6 C98.3,97 97,97.6 95.9,96.1 Z" id="Path" fill="#85C4DA"></path>
            <path d="M107.9,107.9 C107.7,109.3 108.9,111 107,112 C107.2,110.6 106.5,109 107.9,107.9 Z" id="Path" fill="#5180BB"></path>
            <path d="M71,84.9 C71.6,84.9 72,85.3 72.2,85.9 C71.5,86 71.1,85.6 71,84.9 Z" id="Path" fill="#F0F1F1"></path>
            <path d="M62,75 C62.6,75.1 62.9,75.4 62.8,76 C62.3,75.9 62,75.5 62,75 Z" id="Path" fill="#D2D2D2"></path>
            <path d="M66.9,81 L66.5,81 L66.1,81 C66.1,80.7 66.1,80.4 66,80.1 C66.5,80.1 66.9,80.4 66.9,81 Z" id="Path" fill="#E4E4E4"></path>
        </g>
    </g>
</svg>