<?xml version="1.0" encoding="UTF-8"?>
<svg width="257px" height="72px" viewBox="0 0 257 72" version="1.1" xmlns="http://www.w3.org/2000/svg" xmlns:xlink="http://www.w3.org/1999/xlink">
    <!-- Generator: Sketch 50 (54983) - http://www.bohemiancoding.com/sketch -->
    <title>hdpi/ic_launcher_APPtext</title>
    <desc>Created with Sketch.</desc>
    <defs></defs>
    <g id="hdpi/ic_launcher_APP" stroke="none" stroke-width="1" fill="none" fill-rule="evenodd">
        <g id="Tortoise">
            <circle id="Oval" fill="#09AD9C" cx="36" cy="36" r="36"></circle>
            <path d="M36,66.9375 C53.0863094,66.9375 66.9375,53.0863094 66.9375,36 C66.9375,18.9136906 53.0863094,5.0625 36,5.0625 C18.9136906,5.0625 5.0625,18.9136906 5.0625,36 C5.0625,53.0863094 18.9136906,66.9375 36,66.9375 Z M36,72 C16.117749,72 0,55.882251 0,36 C0,16.117749 16.117749,0 36,0 C55.882251,0 72,16.117749 72,36 C72,55.882251 55.882251,72 36,72 Z" id="outer-outline" fill="#068073" fill-rule="nonzero"></path>
            <circle id="Oval-3" fill="#64D4C8" cx="36" cy="36" r="25.875"></circle>
            <path d="M24.1951986,53.2978253 C19.984125,50.4737816 16.8613371,46.1527459 15.5886203,41.0965038 L5.0625,41.0965038 C2.26655845,41.0965038 0,38.8299454 0,36.0340038 C0,33.2380623 2.26655845,30.9715038 5.0625,30.9715038 L15.5716246,30.9715038 C17.4067365,23.5750689 23.1977883,17.7405194 30.5694505,15.8431847 L30.5694505,5.09650384 C30.5694505,2.30056229 32.8360089,0.0340038404 35.6319505,0.0340038404 C38.427892,0.0340038404 40.6944505,2.30056229 40.6944505,5.09650384 L40.6944505,15.772896 C42.7177276,16.2634916 44.6254519,17.0497609 46.3692961,18.0833766 L54.079241,10.3734316 C56.0562703,8.39640241 59.261668,8.39640241 61.2386972,10.3734316 C63.2157264,12.3504609 63.2157264,15.5558586 61.2386972,17.5328878 L53.5688209,25.2027641 C54.6433771,26.9700828 55.4620852,28.9101357 55.9735264,30.9715038 L66.9375,30.9715038 C69.7334415,30.9715038 72,33.2380623 72,36.0340038 C72,38.8299454 69.7334415,41.0965038 66.9375,41.0965038 L55.9565307,41.0965038 C53.6834146,50.1271265 45.5087214,56.8125 35.7725755,56.8125 C35.0823164,56.8125 34.3999057,56.7788972 33.7268899,56.7132381 L30.0896148,66.7065694 C29.1333464,69.333895 26.2282695,70.6885547 23.6009439,69.7322863 C20.9736183,68.776018 19.6189586,65.8709411 20.575227,63.2436155 L24.1951986,53.2978253 Z" id="Combined-Shape" fill="#F8FCF0"></path>
            <path d="M24.6651446,52.5970651 C24.9875651,52.8132879 25.12084,53.2216064 24.9880642,53.5864048 L21.3680926,63.532195 C20.5712024,65.721633 21.7000854,68.1425304 23.8895234,68.9394207 C26.0789614,69.7363109 28.4998588,68.6074279 29.2967491,66.4179899 L32.9340242,56.4246586 C33.0657091,56.0628576 33.4256154,55.8360901 33.8088167,55.873475 C34.4583792,55.936846 35.1134607,55.96875 35.7725755,55.96875 C44.975517,55.96875 52.923221,49.6906139 55.1383036,40.8905463 C55.2326872,40.5155796 55.5698677,40.2527538 55.9565307,40.2527538 L66.9375,40.2527538 C69.2674513,40.2527538 71.15625,38.3639551 71.15625,36.0340038 C71.15625,33.7040526 69.2674513,31.8152538 66.9375,31.8152538 L55.9735264,31.8152538 C55.5857962,31.8152538 55.2479733,31.5510049 55.1546053,31.1746844 C54.6692783,29.2185697 53.8902248,27.3554636 52.847873,25.6411113 C52.6457695,25.3087124 52.6971224,24.8812199 52.9721995,24.6061428 L60.6420759,16.9362665 C62.2896002,15.2887421 62.2896002,12.6175773 60.6420759,10.970053 C58.9945515,9.32252863 56.3233867,9.32252863 54.6758624,10.970053 L46.9659174,18.6799979 C46.6933407,18.9525747 46.2706883,19.0057576 45.9390805,18.8092062 C44.2475711,17.8066105 42.4156361,17.0584414 40.4956231,16.5928849 C40.1171867,16.5011232 39.8507005,16.1622985 39.8507005,15.772896 L39.8507005,5.09650384 C39.8507005,2.76655255 37.9619018,0.87775384 35.6319505,0.87775384 C33.3019992,0.87775384 31.4132005,2.76655255 31.4132005,5.09650384 L31.4132005,15.8431847 C31.4132005,16.2281739 31.1526,16.5643416 30.7797623,16.6603034 C23.7049918,18.4812235 18.1501591,24.082547 16.3905457,31.1746844 C16.2971777,31.5510049 15.9593547,31.8152538 15.5716246,31.8152538 L5.0625,31.8152538 C2.73254871,31.8152538 0.84375,33.7040526 0.84375,36.0340038 C0.84375,38.3639551 2.73254871,40.2527538 5.0625,40.2527538 L15.5886203,40.2527538 C15.9752833,40.2527538 16.3124638,40.5155796 16.4068474,40.8905463 C17.6131644,45.6829957 20.5736286,49.8531995 24.6651446,52.5970651 Z M15.5886203,41.0965038 L5.0625,41.0965038 C2.26655845,41.0965038 0,38.8299454 0,36.0340038 C0,33.2380623 2.26655845,30.9715038 5.0625,30.9715038 L15.5716246,30.9715038 C17.4067365,23.5750689 23.1977883,17.7405194 30.5694505,15.8431847 L30.5694505,5.09650384 C30.5694505,2.30056229 32.8360089,0.0340038404 35.6319505,0.0340038404 C38.427892,0.0340038404 40.6944505,2.30056229 40.6944505,5.09650384 L40.6944505,15.772896 C42.7177276,16.2634916 44.6254519,17.0497609 46.3692961,18.0833766 L54.079241,10.3734316 C56.0562703,8.39640241 59.261668,8.39640241 61.2386972,10.3734316 C63.2157264,12.3504609 63.2157264,15.5558586 61.2386972,17.5328878 L53.5688209,25.2027641 C54.6433771,26.9700828 55.4620852,28.9101357 55.9735264,30.9715038 L66.9375,30.9715038 C69.7334415,30.9715038 72,33.2380623 72,36.0340038 C72,38.8299454 69.7334415,41.0965038 66.9375,41.0965038 L55.9565307,41.0965038 C53.6834146,50.1271265 45.5087214,56.8125 35.7725755,56.8125 C35.0823164,56.8125 34.3999057,56.7788972 33.7268899,56.7132381 L30.0896148,66.7065694 C29.1333464,69.333895 26.2282695,70.6885547 23.6009439,69.7322863 C20.9736183,68.776018 19.6189586,65.8709411 20.575227,63.2436155 L24.1951986,53.2978253 C19.984125,50.4737816 16.8613371,46.1527459 15.5886203,41.0965038 Z" id="t-outline" fill="#A89C81" fill-rule="nonzero"></path>
        </g>
        <path d="M81.6,14 L105.6,14 C109.52002,14 112.399991,14.8899911 114.24,16.67 C116.080009,18.4500089 117,21.1599818 117,24.8 C117,27.200012 116.480005,29.1499925 115.44,30.65 C114.399995,32.1500075 113.120008,33.199997 111.6,33.8 C114.840016,34.6800044 117.039994,36.8399828 118.2,40.28 C118.600002,41.5200062 118.8,42.9599918 118.8,44.6 C118.8,48.5200196 117.880009,51.3999908 116.04,53.24 C114.199991,55.0800092 111.32002,56 107.4,56 L81.6,56 L81.6,14 Z M108,42.8 C108,40.399988 106.800012,39.2 104.4,39.2 L92.4,39.2 L92.4,47.6 L104.4,47.6 C106.800012,47.6 108,46.400012 108,44 L108,42.8 Z M106.2,26 C106.2,23.599988 105.000012,22.4 102.6,22.4 L92.4,22.4 L92.4,30.8 L102.6,30.8 C105.000012,30.8 106.2,29.600012 106.2,27.2 L106.2,26 Z M136.8,25.4 L136.8,56 L126.3,56 L126.3,33.5 L121.8,33.5 L121.8,25.4 L136.8,25.4 Z M126.3,13.4 L136.8,13.4 L136.8,21.8 L126.3,21.8 L126.3,13.4 Z M165,56 C161.119981,56.400002 157.320019,56.6 153.6,56.6 C150.879986,56.6 148.700008,55.7800082 147.06,54.14 C145.419992,52.4999918 144.6,50.3200136 144.6,47.6 L144.6,32.3 L141,32.3 L141,24.2 L144.6,24.2 L145.8,17 L155.1,17 L155.1,24.2 L162.6,24.2 L162.6,32.3 L155.1,32.3 L155.1,46.1 C155.1,46.700003 155.299998,47.199998 155.7,47.6 C156.100002,48.000002 156.599997,48.2 157.2,48.2 L165,48.2 L165,56 Z M205.8,55.1 C196.439953,56.100005 187.840039,56.6 180,56.6 C176.07998,56.6 173.200009,55.6800092 171.36,53.84 C169.519991,51.9999908 168.6,49.1200196 168.6,45.2 L168.6,26 C168.6,21.799979 169.54999,18.7500095 171.45,16.85 C173.350009,14.9499905 176.399979,14 180.6,14 L202.2,14 L202.2,22.4 L183,22.4 C180.599988,22.4 179.4,23.599988 179.4,26 L179.4,45.2 C179.4,46.1200046 179.669997,46.8499973 180.21,47.39 C180.750003,47.9300027 181.479995,48.2 182.4,48.2 C187.000023,48.2 191.199981,48.100001 195,47.9 L195,39.2 L187.2,39.2 L187.2,32 L205.8,32 L205.8,55.1 Z M248.4,56 L237,56 L222.6,30.8 L222.6,56 L211.8,56 L211.8,14 L223.2,14 L237.6,39.2 L237.6,14 L248.4,14 L248.4,56 Z" id="BitGN-Logo" stroke="#A89C81" fill="#F8FCF0"></path>
    </g>
</svg>